PathFileType	3	(X/Y/Z)	results
DataRate	CameraRate	NumFrames	NumMarkers	Units	OrigDataRate	OrigDataStartFrame	OrigNumFrames
30.0	30.0	4	85	mm	30.0	50	199
Frame#	Time	head			nose			neck			shoulder_r			elbow_r			wrist_r			shoulder_l			elbow_l			wrist_l			hip_r			knee_r			ankle_r			hip_l			knee_l			ankle_l			heel_r			heel_l			mtoe_r			ltoe_r			mtoe_l			ltoe_l			asis_l			asis_r			psi_r			psi_l			mhnd_r			lhnd_r			mhnd_l			lhnd_l			l_lat_knee			r_med_wrist			l_lat_ankle			r_med_ankle			r_lat_knee			xiphoid			l_med_ankle			r_med_knee			l_med_elbow			navel			r_lat_elbow			r_lat_wrist			l_med_wrist			l_lat_elbow			l_med_knee			r_med_elbow			r_lat_ankle			l_lat_wrist			chin			T10			r_eye			l_eye			l_ear			r_ear			spinal_cord_8			spinal_cord_12			spinal_cord_27			spinal_cord_33			up_arm_r_0			up_arm_r_5			up_arm_l_0			up_arm_l_5			front_torso_11			front_torso_7			front_torso_4			front_torso_1			front_torso_10			thigh_r_2			thigh_r_3			thigh_l_1			thigh_l_5			shank_l_0			shank_l_4			shank_r_1			shank_r_2			foot_r_1			foot_r_3			foot_r_5			foot_r_6			foot_r_7			foot_l_1			foot_l_7			foot_l_0			foot_l_4			foot_l_5			foot_l_6			
		X1	Y1	Z1	X2	Y2	Z2	X3	Y3	Z3	X4	Y4	Z4	X5	Y5	Z5	X6	Y6	Z6	X7	Y7	Z7	X8	Y8	Z8	X9	Y9	Z9	X10	Y10	Z10	X11	Y11	Z11	X12	Y12	Z12	X13	Y13	Z13	X14	Y14	Z14	X15	Y15	Z15	X16	Y16	Z16	X17	Y17	Z17	X18	Y18	Z18	X19	Y19	Z19	X20	Y20	Z20	X21	Y21	Z21	X22	Y22	Z22	X23	Y23	Z23	X24	Y24	Z24	X25	Y25	Z25	X26	Y26	Z26	X27	Y27	Z27	X28	Y28	Z28	X29	Y29	Z29	X30	Y30	Z30	X31	Y31	Z31	X32	Y32	Z32	X33	Y33	Z33	X34	Y34	Z34	X35	Y35	Z35	X36	Y36	Z36	X37	Y37	Z37	X38	Y38	Z38	X39	Y39	Z39	X40	Y40	Z40	X41	Y41	Z41	X42	Y42	Z42	X43	Y43	Z43	X44	Y44	Z44	X45	Y45	Z45	X46	Y46	Z46	X47	Y47	Z47	X48	Y48	Z48	X49	Y49	Z49	X50	Y50	Z50	X51	Y51	Z51	X52	Y52	Z52	X53	Y53	Z53	X54	Y54	Z54	X55	Y55	Z55	X56	Y56	Z56	X57	Y57	Z57	X58	Y58	Z58	X59	Y59	Z59	X60	Y60	Z60	X61	Y61	Z61	X62	Y62	Z62	X63	Y63	Z63	X64	Y64	Z64	X65	Y65	Z65	X66	Y66	Z66	X67	Y67	Z67	X68	Y68	Z68	X69	Y69	Z69	X70	Y70	Z70	X71	Y71	Z71	X72	Y72	Z72	X73	Y73	Z73	X74	Y74	Z74	X75	Y75	Z75	X76	Y76	Z76	X77	Y77	Z77	X78	Y78	Z78	X79	Y79	Z79	X80	Y80	Z80	X81	Y81	Z81	X82	Y82	Z82	X83	Y83	Z83	X84	Y84	Z84	X85	Y85	Z85	
50	1.6666666666666667	-2051.900438857072	1655.5591310484572	-803.2819707916195	-2152.275781877379	1457.8944184327695	-854.396931799142	-1993.6634363555456	1321.1150693448908	-776.2442922520304	-1988.1094332003927	1278.1803770180582	-976.9894576820144	-1909.2204419036193	1021.3555083574961	-1035.026459005603	-1948.3713672261124	797.2681923579559	-1086.948882138131	-1996.7488877738897	1278.7893078368234	-609.5195333012574	-2037.0851680477422	1022.4777109612124	-539.2139492427345	-2150.9679865145126	820.1146276330928	-548.727549471818	-1997.9527822757489	812.8792389166215	-898.4884495103851	-2111.131317785421	467.72717591863227	-854.4757413189883	-2090.1920408254737	88.38573982263853	-847.2279908224923	-1989.3234933973708	791.8339147286845	-702.0632452630733	-2037.0262820506496	416.75533570471055	-700.1228997037338	-1695.8536310868503	244.4347112899688	-681.0570171585478	-2069.6494698923834	33.745311307685505	-840.2540435128708	-1631.0278728075725	242.3270583598621	-678.7214421208625	-2274.837341158322	3.1547974726837578	-858.1710321891691	-2213.7705040480996	6.746299009632867	-913.5111138981016	-1696.68980458846	41.279188277335955	-684.7463005122532	-1651.7429612829892	82.64946357639644	-616.5984189333105	-2053.1144295952304	835.7161538019632	-650.3324142126454	-2061.1052073977785	864.595796909363	-938.3516153249956	-1907.0332227421827	912.7794013992891	-841.9370408682345	-1909.2494799939814	900.2475119190734	-743.8923381764296	-1929.8721324769149	729.7826839190941	-1108.975507819456	-1982.2797970924637	719.3654870351475	-1105.2390719011435	-2171.701566500894	750.2556986513493	-526.267239963215	-2202.578811919078	751.646091837461	-569.8609303997986	-2039.7529553159495	422.36459570818727	-654.4548183126277	-1922.3131670528335	804.7226057304453	-1098.2266799494628	-1678.0933689897997	252.33804422451783	-630.4179322532366	-2101.869960154827	79.12597897592526	-812.8269715327704	-2115.1603730709244	455.5874175827798	-893.2468235245684	-2095.328870035854	1156.0885898746228	-799.7376753681652	-1693.4710758194524	221.273023851554	-706.6376057357654	-2113.3594812979277	469.0207456268618	-815.0757723073442	-2000.876659013528	1024.151508655122	-546.463061000684	-2120.009788473442	937.104365512278	-810.6409797185466	-1929.0442154526304	1030.7080276913373	-1070.8827120690723	-1971.7765992386746	804.1435061643065	-1065.6668803534833	-2142.902683995282	825.503156356221	-517.8839322612343	-2069.184620520804	1043.281782592608	-524.7046233974983	-2042.4034753786748	426.8177087998377	-745.0640728106672	-1893.8685340237957	1024.849802809839	-999.6307782070459	-2093.5659745938665	69.4597907314613	-892.8907373905694	-2160.3781964236755	835.2108234224298	-574.2637480931655	-2125.0856253901343	1379.298136876777	-845.6580106124928	-1900.3270465555743	1157.5148551196096	-773.0273835277387	-2140.65673972322	1492.7865483117012	-886.4852893214933	-2171.1186972715877	1489.7287993656514	-819.2739258303574	-2095.0625085789848	1492.4113877582556	-723.0800700638588	-2016.6794784827698	1496.943273382631	-888.6288721371724	-1942.4897474007266	1377.988233310888	-766.3572016061389	-1896.37818938571	1257.7778637661052	-764.9844181330741	-1920.955943890659	1006.9215295182843	-796.5003819849319	-1913.712361636527	1148.5058759011174	-775.1672013265714	-1995.151979460661	1136.287491011967	-1001.6207226480602	-1907.7724817157482	1139.846235797182	-1032.8071044338185	-2029.2524068366276	1235.1684712705216	-579.892065260862	-1983.816376530234	1088.973253496163	-552.6730638593477	-2072.3007940353205	965.4281161724851	-856.5800719774487	-2129.405105834134	1070.5045113718268	-809.7203716521864	-2108.7680842933046	1198.5321262309662	-727.4704620211796	-2092.6181562314428	993.4669881007223	-726.8061648687049	-2093.294360567125	1247.46338218729	-884.0870714206707	-2059.4422553577124	627.9637541722469	-858.0295601964858	-2071.5353096412255	585.3654871480379	-943.2572892073249	-2011.9752589476727	530.1730599287827	-744.920206092601	-2032.2499703276953	695.8616172163706	-611.0247050503431	-1778.95086303081	292.27376308932475	-618.7758220134955	-1909.9099724300092	335.7783024476348	-738.2272753207733	-2101.986258623683	304.0263971247638	-908.6065986684002	-2104.3065219563673	270.273116359166	-811.3268004596923	-2255.497519882046	-1.1084783316152296	-878.0167200137869	-2238.254032198985	2.812140813166528	-898.7057248572312	-2201.5816183504962	21.29070230365861	-839.34398407472	-2186.8211131198054	29.658960864278068	-871.9881866489335	-2171.66059063355	19.233169667643747	-899.6273864123423	-1667.5827841866078	57.918029461159506	-643.3690008723274	-1659.6796601986894	158.89160854866677	-621.4135030581552	-1662.0197492547309	64.0676500623323	-630.0062703861009	-1674.2065038569006	50.92953467037278	-659.800618982111	-1669.6489905903788	106.92617232887395	-650.7611182556864	-1678.3165363181395	138.49259908663365	-676.103536546907	
51	1.7	-2095.8205192590126	1664.8886992193818	-806.9757929546857	-2193.123772474267	1467.3988454769622	-864.3266597416233	-2034.1745937625587	1327.6515945935464	-780.6173857205024	-2029.8488616172233	1285.2101004577796	-982.1455616710906	-1955.3303699022804	1027.661435634333	-1042.696856233317	-2011.7650015326637	804.7799999212035	-1082.4819807981035	-2040.6014323612328	1284.951821578667	-612.4357538678069	-2071.4233008483434	1024.9708078985698	-551.3996145903363	-2174.253718512609	817.0084066470139	-565.1170230189463	-2043.2538292326306	821.0199443079283	-902.2589128292689	-2132.0592378167103	468.84313321026787	-858.6742352665226	-2092.9753204184995	91.05896542871133	-846.7378069631217	-2036.8477950573704	797.0988543722547	-706.0779368332389	-2122.40630403791	427.7831336059889	-715.3648186150679	-1788.2344584374175	245.76648019814596	-674.6733117401776	-2070.954578595105	36.06285060112843	-838.2094253121966	-1723.3212225775162	240.97554442396878	-667.1240492918207	-2274.9858056451776	8.242015038658042	-869.1306159686283	-2210.6079561005718	11.980720896198132	-920.5708403850377	-1799.6240965077707	45.586907105628875	-694.8582539031026	-1754.517637904103	77.38353539532844	-621.8498024280408	-2100.635452554929	841.0010969058214	-654.360036839623	-2105.390081208898	874.0423690348343	-942.00324355196	-1951.7395772896152	919.022172916944	-843.3931717889225	-1955.088607330978	905.1327999319317	-745.5637636748988	-1999.010426280144	735.4317137049496	-1102.7260857044496	-2051.6145118586564	728.6140776721904	-1095.284830829111	-2191.7098437299505	745.9251874102906	-543.7376770025085	-2221.75040504889	746.144352702069	-587.9334230186732	-2127.6370841842845	434.10600337913036	-669.8734377857973	-1986.0789556599034	810.0754130837275	-1095.6718422580475	-1774.0181318646341	252.36400891804124	-622.7447533657754	-2105.5484201556505	81.52206124851973	-812.7302824923441	-2134.039934034813	456.11283936461984	-897.4394199328468	-2137.4608771400867	1163.719054363553	-804.6923582396159	-1784.6049829759156	222.95876886431017	-700.424856512107	-2136.111654592972	470.2674964719797	-819.4024772837025	-2035.143583490693	1028.4490237890077	-557.5714432616965	-2164.606393546105	944.9867284448944	-814.7626530477105	-1977.0381613988905	1036.8770416076795	-1077.4814346301816	-2033.2587658191153	813.9847668639793	-1060.0925013984597	-2167.094894296594	822.4916224612796	-534.0670689233591	-2104.7877292948415	1043.8780609688367	-537.1505627701896	-2123.2058941768446	440.02397209670613	-760.3291433818302	-1938.058284128951	1031.3098950285382	-1008.2133937396636	-2093.6033253271626	71.61341553026828	-892.3024599432291	-2183.94159500588	831.8543449226713	-590.6960727206045	-2166.5007285435063	1388.7692808552185	-854.2443025275601	-1942.8642220897045	1162.9713564359288	-775.1497132260856	-2179.664874976408	1502.3719314286031	-895.5975230765528	-2213.9546478460275	1499.1466783333037	-830.2640914534214	-2143.5746285829036	1501.5442318214891	-729.8354967607315	-2055.7695345386032	1506.4874406746806	-890.573399597589	-1982.4711619216691	1383.965508331825	-770.2947873295892	-1937.829915905438	1263.2237699699372	-767.5957070052557	-1964.9554750045234	1012.5051242815384	-798.1012339472536	-1956.3241881895453	1154.110655308406	-777.4354242112406	-2038.8254592228373	1143.197475829095	-1005.4205033958814	-1953.260352566496	1146.1559572568674	-1041.3411327057509	-2071.9232452252377	1239.0173900395841	-585.122478070423	-2020.8077352776631	1094.1178407304471	-561.2546369405762	-2115.8992411307163	972.4815141935031	-860.1546485926565	-2172.4129556269045	1078.492431283147	-814.7050248281655	-2151.4374579977443	1206.7248639329239	-732.8608058824447	-2137.760279896606	1001.4887930514378	-730.8452782082188	-2133.106136460311	1254.5880253617327	-889.4990729308935	-2092.4571507325923	632.404128522797	-862.0753252375696	-2098.2425969219075	588.3495875809801	-947.2242896617546	-2082.596755322845	539.7196964283185	-755.8697654741223	-2095.7665965854862	704.7978841659161	-620.3429624005971	-1874.360725429828	294.8959452786412	-617.7414762053719	-1995.0405260650602	343.9236599501483	-745.586115863673	-2112.805195496293	305.34636511049973	-910.7301232853371	-2117.3490653963654	272.325259986448	-813.2776395477805	-2254.515105413469	4.063541551575983	-887.8267739738253	-2235.994416499428	8.106114152416463	-907.3558736018839	-2202.8245321890663	25.188835933922377	-845.5652688764433	-2186.000498239502	33.89933991195497	-877.1029166933223	-2169.2918533664038	23.734688959125616	-903.9350799532153	-1770.8852547597148	56.36463158871374	-651.3373367706079	-1758.147078219651	154.05640919548674	-619.1780088354569	-1765.3915183014453	60.83543245984308	-637.2960207162998	-1777.3929605782193	51.424379420247604	-668.5406640333504	-1770.0620890138434	105.90110025742386	-653.8215560933284	-1776.2486101405796	140.2612862756321	-676.0680925694991	
52	1.7333333333333334	-2140.166423566938	1674.7011951822014	-810.7825945748377	-2231.49182602899	1476.3251343936688	-874.5469789116742	-2074.216909841875	1335.5623222354386	-785.9720767811821	-2069.8471679615286	1292.87930150861	-984.0981805732333	-2002.642683983922	1035.0613610920589	-1051.6573884256281	-2066.484838291467	812.5758873483446	-1081.1234956650521	-2080.0280629030667	1290.4327133372744	-615.6726419635122	-2103.2052778966813	1029.210313847365	-556.5862640161324	-2194.853545225256	816.1695452532715	-571.5812110925946	-2085.7354829077285	828.5700146301383	-900.044942356582	-2149.8726022489745	470.19015579708224	-865.3637149816191	-2096.2195224466095	94.43414878089007	-847.4841577945916	-2084.3050064841627	806.1256366088447	-703.5902789027487	-2196.7923518338444	444.94916555804457	-730.8153500482716	-1879.9509451321471	236.5624730239269	-679.4033610227481	-2073.734628857951	38.64319120750151	-837.1596396992147	-1815.5898166107402	224.88687467253223	-667.1710133189006	-2277.0267766427282	17.149602764867012	-876.7726279666331	-2210.1810128937946	15.909133938206942	-925.0912292232867	-1911.1688410520842	43.61286982071749	-719.8247835578846	-1868.1822632687713	62.562716734155785	-641.2823771930387	-2147.646996047061	852.5985319513213	-653.5995229077391	-2145.1791149525925	883.3191880745904	-941.5285026502379	-1992.214523802721	923.924961599552	-839.997170659437	-1998.1060427559453	910.9942161116056	-742.1564347585625	-2057.163051845361	742.7607939326155	-1101.6331227525693	-2108.6306318360057	736.8827754565718	-1088.0103710684054	-2209.9075902154214	744.6719903766002	-549.7616745062772	-2237.551193941745	742.648132348367	-595.4506501504188	-2203.941320951333	450.21122248569674	-685.4422012179944	-2042.4410558977652	817.2800563704094	-1097.2961305922388	-1869.4163168414525	238.52351887250387	-626.2302248801973	-2110.802202287046	84.56595579948922	-814.3856485392458	-2145.989842505949	457.3876134761721	-903.9916876008018	-2177.3280004472763	1171.541108591613	-810.1936137053472	-1875.8797010500748	215.36975339182763	-706.4366821796708	-2159.5982840724837	471.17402667842816	-827.0556369413696	-2066.8114969655844	1034.2456180126667	-560.6539129663702	-2204.9184751498415	952.7478132810064	-817.2914960001219	-2028.1831001755766	1044.1308294469413	-1083.7752087732288	-2085.0865393931485	822.4291906319077	-1056.5290337684125	-2189.618822926015	822.5240599288874	-540.3141054566885	-2138.1109859075877	1046.642118547288	-544.2806346068369	-2194.252453815553	458.74114517748546	-775.2768200795322	-1981.5476743064746	1038.8552335962893	-1019.3873948310572	-2092.7675148811945	74.73247330890092	-892.8117325099952	-2203.895498130471	830.0814380599286	-597.9107941517576	-2204.778314803783	1397.9541534764	-862.824074159781	-1983.6624685118413	1170.735340833342	-775.0624656758752	-2216.3812402098492	1511.4838280483004	-904.8399156008215	-2254.824472554308	1507.8043396949406	-841.8857471844203	-2191.1730291155877	1510.7549582494548	-737.077419249718	-2093.1261404263064	1516.8508788633046	-891.7399248304405	-2022.6392983073151	1391.8947782782175	-775.134080344277	-1978.5054164926346	1271.0878811924863	-769.0853320758451	-2005.5987575737056	1019.9611781463616	-796.0585097255021	-1997.0814415919117	1161.8758433449975	-777.5819204419256	-2081.3746742488706	1150.769402300725	-1005.5872688906388	-2000.4712765362601	1153.5602906673344	-1051.0546514870334	-2110.8851354615235	1243.133038092077	-590.2241686986696	-2055.09964685927	1100.474662672606	-563.4862598149045	-2154.835991356118	979.314822770868	-861.7293404927076	-2212.268632142873	1086.2568879568325	-819.745185925797	-2193.2126096911343	1215.8180658254362	-739.5406121377364	-2180.298107890574	1010.6081622447705	-733.6174829695171	-2170.232988505287	1260.9231023992033	-896.384288966113	-2124.1508358120436	636.4504770419452	-865.0312670168696	-2114.8925621844865	592.2295682337088	-949.7863005035348	-2146.5566290717434	554.8118778285129	-765.0911296417372	-2154.4937998761834	715.86857385289	-624.4159394969383	-1966.722603827807	287.8539282008423	-625.4354263249653	-2073.44598413043	354.24811370608217	-757.7740646907442	-2120.2062287834974	307.3582973612177	-914.5309699985767	-2130.3826326393537	274.7055219836397	-817.3802428340044	-2255.8775734823753	11.283808547258339	-894.2185213714663	-2236.3022184788692	13.656912333520888	-912.9779962647764	-2205.438704224793	32.46248631077668	-850.4965324836104	-2186.797650193631	38.97207364487186	-881.5397379407788	-2169.259285721113	26.877344968504623	-907.0071138866412	-1884.6297590230904	46.609156555499744	-673.7503873169369	-1863.3507872894293	138.49683644865007	-630.8082568086634	-1879.7000550496584	49.00805106736664	-659.0102692341519	-1890.387997533801	44.17439068090786	-691.7399787466203	-1878.0636017885008	95.69956615699648	-670.9704700551147	-1878.718778998945	132.5493170368506	-689.8243931205835	
53	1.7666666666666666	-2184.804565494563	1683.0911174247167	-813.4909878290277	-2269.447814982648	1483.5988931819124	-882.7561314544023	-2115.1875534776564	1342.6434676453011	-790.1024292775329	-2110.0596064676097	1301.6576749286296	-985.9998020562339	-2049.5194750792202	1043.990561094479	-1060.1168080186112	-2112.522229908581	821.4497270979731	-1090.940309725742	-2118.6172562160245	1297.9137584348177	-618.3448321638634	-2132.728672326712	1036.3771652064302	-557.8055582426604	-2212.3539189246885	818.2364643186891	-567.0292855659412	-2130.2596369583953	834.9741100580702	-896.6581473293982	-2165.842385369819	471.93824167235016	-871.5194712770368	-2099.228138587284	98.60404729518562	-847.5396927003967	-2131.578146952924	817.7133299795966	-699.6795744774331	-2262.0263229010943	464.5540545700321	-741.1767050978306	-1973.0026720334904	221.53780669980114	-679.0066499923755	-2076.646698208032	42.37536930768498	-835.3499496046985	-1912.237198700767	198.84182938431306	-658.1815430887104	-2278.9822072827087	24.25335494078356	-881.0751603460484	-2210.438583901427	15.321694595378691	-926.0927042453666	-2018.4607881904765	50.08248058965686	-764.7425089752211	-1990.866796920109	46.43691711873313	-677.5580282582121	-2191.0939536704172	870.5586100251048	-651.3447169113927	-2184.792201601535	893.3141153796763	-939.9541786797436	-2029.460040407923	923.859764512997	-838.4924155224833	-2036.842718261488	914.061351248884	-740.3893526687118	-2103.737861495176	752.2840407618631	-1113.7576382217608	-2154.1323057569025	745.3878437922308	-1096.9682156690296	-2224.37625907955	746.9485660549752	-542.7781887022243	-2250.2035873152367	741.6100417661862	-589.2561038698775	-2271.5582429555693	468.8425872875078	-696.2085141028855	-2089.643839193565	826.8667845738879	-1108.519317805426	-1973.1200185496816	211.74423079127104	-625.6561242030588	-2117.348931609404	87.94290747346561	-816.4990088012901	-2154.1415792081407	459.8685371090833	-908.8237361778845	-2215.745008134664	1177.0613787822804	-814.4398190853975	-1964.7737293411653	205.94900207405237	-708.7687150931135	-2183.036085143111	471.60797912656795	-835.8737273374742	-2096.452718921807	1042.996495388529	-560.3837395756217	-2240.4522957583736	957.8686954470636	-819.5621047904605	-2077.1377842753864	1053.5070376519493	-1090.3291924071364	-2129.591898151098	830.4531594823976	-1064.9487138368988	-2208.5973667128014	826.1032736346406	-535.8938444124017	-2168.861671214618	1052.3311436848023	-547.1480846172612	-2256.4001032926503	478.57339263203187	-785.1603814402656	-2026.2323753147275	1047.3649722903936	-1029.3423101006429	-2089.4106167273735	79.33779380915307	-892.1164707732665	-2221.16258759507	830.5788683634948	-594.2067953216863	-2241.7438295233824	1405.6476815603883	-870.5435713564824	-2022.8093444697452	1179.1154508558673	-775.5451464748996	-2253.740011392604	1519.3126240935987	-912.080522109535	-2294.7638995555676	1514.3301277263113	-850.8688941408569	-2235.7261390159333	1517.5406502849416	-743.4015345309722	-2131.286052216291	1526.9069817900538	-893.6526022999076	-2064.5406534011768	1399.746053473609	-778.9111832990139	-2019.0259570410046	1279.5862815649625	-770.6205323455071	-2042.4427437937113	1027.848066807888	-795.232475693625	-2036.0645584368738	1170.0581240641625	-778.2230786364214	-2124.0636841750684	1159.8186110438073	-1007.8046990895606	-2046.4537470601826	1162.4627653425584	-1058.698095601824	-2148.4097786412594	1249.4828876604297	-593.770468280605	-2087.5668618798713	1109.657724786368	-563.3498848772543	-2189.8457812422744	984.5705918459811	-863.3202196557456	-2249.422452879448	1091.2374279263322	-823.6895617515214	-2233.5621934907977	1221.9228606492063	-744.6213993530854	-2218.2002284088476	1016.9734073566326	-736.0947372053103	-2208.0827900165377	1265.5532862202888	-901.4960379607719	-2156.5828976015823	639.8045032759245	-867.8914294027311	-2127.6752060417907	597.4346170252422	-949.0933888341574	-2204.1048683214867	571.5760646950515	-770.1958551116037	-2210.9754445996205	730.0307948246035	-626.5411969270534	-2065.9359775330518	268.73095538205854	-632.0079314046819	-2140.707636834097	370.0863092102469	-764.0983329952675	-2123.612186045232	310.7668070328761	-916.8196448245247	-2144.296623340897	277.1312962382032	-821.6942896806707	-2257.4392010686533	15.756520811208825	-896.8789012275516	-2237.076482081913	15.360623794273732	-914.9329031214643	-2207.8842570674847	39.661839929111956	-853.5537182617937	-2187.8115943187763	42.080819389429266	-884.291007931771	-2169.823125594517	26.66153141185238	-907.553090360363	-2002.1075428879906	39.85719891981335	-715.1021465575712	-1977.9917953132422	117.10024055543708	-650.3556395895042	-2000.1240586058632	38.609053994345054	-699.5510796621212	-2004.2107914733008	41.81152940594898	-733.9294600450712	-1989.6086362800936	85.66068075250912	-700.7310275592597	-1981.2032437842988	124.8608578408364	-711.0508776201103	
